<mxfile host="app.diagrams.net" agent="Mozilla/5.0 (Windows NT 10.0; Win64; x64) AppleWebKit/537.36 (KHTML, like Gecko) Chrome/140.0.0.0 Safari/537.36" version="28.2.1">
  <diagram name="Página-1" id="gP08L72Hn2s0kHgSDx4x">
    <mxGraphModel dx="3203" dy="1420" grid="1" gridSize="10" guides="1" tooltips="1" connect="1" arrows="1" fold="1" page="1" pageScale="1" pageWidth="827" pageHeight="1169" math="0" shadow="0">
      <root>
        <mxCell id="0" />
        <mxCell id="1" parent="0" />
        <mxCell id="jBkCQPa_rAHTE68eQ11Z-1" value="Usuario" style="rounded=0;whiteSpace=wrap;html=1;" vertex="1" parent="1">
          <mxGeometry x="1750" y="700" width="138" height="40" as="geometry" />
        </mxCell>
        <mxCell id="jBkCQPa_rAHTE68eQ11Z-2" value="Id_usuario (PK)" style="ellipse;whiteSpace=wrap;html=1;" vertex="1" parent="1">
          <mxGeometry x="1640" y="630" width="80" height="40" as="geometry" />
        </mxCell>
        <mxCell id="jBkCQPa_rAHTE68eQ11Z-3" value="Nombre" style="ellipse;whiteSpace=wrap;html=1;" vertex="1" parent="1">
          <mxGeometry x="1720" y="605" width="68" height="30" as="geometry" />
        </mxCell>
        <mxCell id="jBkCQPa_rAHTE68eQ11Z-4" style="edgeStyle=orthogonalEdgeStyle;rounded=0;orthogonalLoop=1;jettySize=auto;html=1;exitX=0;exitY=1;exitDx=0;exitDy=0;entryX=0.75;entryY=0;entryDx=0;entryDy=0;" edge="1" parent="1" source="jBkCQPa_rAHTE68eQ11Z-5" target="jBkCQPa_rAHTE68eQ11Z-1">
          <mxGeometry relative="1" as="geometry" />
        </mxCell>
        <mxCell id="jBkCQPa_rAHTE68eQ11Z-5" value="Apellido" style="ellipse;whiteSpace=wrap;html=1;" vertex="1" parent="1">
          <mxGeometry x="1848" y="620.5" width="60" height="30" as="geometry" />
        </mxCell>
        <mxCell id="jBkCQPa_rAHTE68eQ11Z-6" value="Estado" style="ellipse;whiteSpace=wrap;html=1;" vertex="1" parent="1">
          <mxGeometry x="1908" y="770" width="60" height="30" as="geometry" />
        </mxCell>
        <mxCell id="jBkCQPa_rAHTE68eQ11Z-7" style="edgeStyle=orthogonalEdgeStyle;rounded=0;orthogonalLoop=1;jettySize=auto;html=1;exitX=0;exitY=0.5;exitDx=0;exitDy=0;entryX=1;entryY=0;entryDx=0;entryDy=0;" edge="1" parent="1" source="jBkCQPa_rAHTE68eQ11Z-8" target="jBkCQPa_rAHTE68eQ11Z-1">
          <mxGeometry relative="1" as="geometry" />
        </mxCell>
        <mxCell id="jBkCQPa_rAHTE68eQ11Z-8" value="Contraseña" style="ellipse;whiteSpace=wrap;html=1;" vertex="1" parent="1">
          <mxGeometry x="1920" y="660" width="70" height="30" as="geometry" />
        </mxCell>
        <mxCell id="jBkCQPa_rAHTE68eQ11Z-9" style="edgeStyle=orthogonalEdgeStyle;rounded=0;orthogonalLoop=1;jettySize=auto;html=1;exitX=1;exitY=0;exitDx=0;exitDy=0;entryX=0;entryY=0.75;entryDx=0;entryDy=0;" edge="1" parent="1" source="jBkCQPa_rAHTE68eQ11Z-10" target="jBkCQPa_rAHTE68eQ11Z-1">
          <mxGeometry relative="1" as="geometry" />
        </mxCell>
        <mxCell id="jBkCQPa_rAHTE68eQ11Z-10" value="Rol" style="ellipse;whiteSpace=wrap;html=1;" vertex="1" parent="1">
          <mxGeometry x="1660" y="740" width="60" height="30" as="geometry" />
        </mxCell>
        <mxCell id="jBkCQPa_rAHTE68eQ11Z-11" value="Fecha_registro" style="ellipse;whiteSpace=wrap;html=1;" vertex="1" parent="1">
          <mxGeometry x="1803" y="810" width="98" height="30" as="geometry" />
        </mxCell>
        <mxCell id="jBkCQPa_rAHTE68eQ11Z-12" value="Pertenece" style="strokeWidth=2;html=1;shape=mxgraph.flowchart.decision;whiteSpace=wrap;" vertex="1" parent="1">
          <mxGeometry x="510" y="691.75" width="90" height="57.5" as="geometry" />
        </mxCell>
        <mxCell id="jBkCQPa_rAHTE68eQ11Z-13" value="Realiza" style="strokeWidth=2;html=1;shape=mxgraph.flowchart.decision;whiteSpace=wrap;" vertex="1" parent="1">
          <mxGeometry x="1990" y="695" width="60" height="50" as="geometry" />
        </mxCell>
        <mxCell id="jBkCQPa_rAHTE68eQ11Z-14" value="" style="endArrow=none;html=1;rounded=0;" edge="1" parent="1">
          <mxGeometry relative="1" as="geometry">
            <mxPoint x="1888" y="719.5" as="sourcePoint" />
            <mxPoint x="1990" y="720" as="targetPoint" />
          </mxGeometry>
        </mxCell>
        <mxCell id="jBkCQPa_rAHTE68eQ11Z-15" value="Venta" style="rounded=0;whiteSpace=wrap;html=1;" vertex="1" parent="1">
          <mxGeometry x="2130" y="700" width="128" height="40" as="geometry" />
        </mxCell>
        <mxCell id="jBkCQPa_rAHTE68eQ11Z-16" style="edgeStyle=orthogonalEdgeStyle;rounded=0;orthogonalLoop=1;jettySize=auto;html=1;exitX=0;exitY=0.5;exitDx=0;exitDy=0;entryX=0.5;entryY=1;entryDx=0;entryDy=0;" edge="1" parent="1" source="jBkCQPa_rAHTE68eQ11Z-6" target="jBkCQPa_rAHTE68eQ11Z-1">
          <mxGeometry relative="1" as="geometry" />
        </mxCell>
        <mxCell id="jBkCQPa_rAHTE68eQ11Z-17" value="Inventario" style="rounded=0;whiteSpace=wrap;html=1;" vertex="1" parent="1">
          <mxGeometry x="1437" y="405" width="128" height="40" as="geometry" />
        </mxCell>
        <mxCell id="jBkCQPa_rAHTE68eQ11Z-18" value="Realiza" style="strokeWidth=2;html=1;shape=mxgraph.flowchart.decision;whiteSpace=wrap;" vertex="1" parent="1">
          <mxGeometry x="1788" y="400" width="60" height="50" as="geometry" />
        </mxCell>
        <mxCell id="jBkCQPa_rAHTE68eQ11Z-19" value="" style="endArrow=none;html=1;rounded=0;exitX=0.5;exitY=0;exitDx=0;exitDy=0;entryX=0.5;entryY=1;entryDx=0;entryDy=0;entryPerimeter=0;" edge="1" parent="1" source="jBkCQPa_rAHTE68eQ11Z-1" target="jBkCQPa_rAHTE68eQ11Z-18">
          <mxGeometry relative="1" as="geometry">
            <mxPoint x="1970" y="830" as="sourcePoint" />
            <mxPoint x="2072" y="830.5" as="targetPoint" />
          </mxGeometry>
        </mxCell>
        <mxCell id="jBkCQPa_rAHTE68eQ11Z-20" value="" style="endArrow=none;html=1;rounded=0;exitX=1;exitY=0.5;exitDx=0;exitDy=0;exitPerimeter=0;entryX=0;entryY=1;entryDx=0;entryDy=0;" edge="1" parent="1" source="jBkCQPa_rAHTE68eQ11Z-132" target="jBkCQPa_rAHTE68eQ11Z-1">
          <mxGeometry relative="1" as="geometry">
            <mxPoint x="1986" y="1340" as="sourcePoint" />
            <mxPoint x="2088" y="1340.5" as="targetPoint" />
            <Array as="points">
              <mxPoint x="1750" y="1375" />
            </Array>
          </mxGeometry>
        </mxCell>
        <mxCell id="jBkCQPa_rAHTE68eQ11Z-21" value="" style="endArrow=none;html=1;rounded=0;exitX=1;exitY=0.5;exitDx=0;exitDy=0;exitPerimeter=0;entryX=0;entryY=0.5;entryDx=0;entryDy=0;" edge="1" parent="1" source="jBkCQPa_rAHTE68eQ11Z-13" target="jBkCQPa_rAHTE68eQ11Z-15">
          <mxGeometry relative="1" as="geometry">
            <mxPoint x="2070" y="820" as="sourcePoint" />
            <mxPoint x="2172" y="820.5" as="targetPoint" />
          </mxGeometry>
        </mxCell>
        <mxCell id="jBkCQPa_rAHTE68eQ11Z-22" value="Productos" style="rounded=0;whiteSpace=wrap;html=1;" vertex="1" parent="1">
          <mxGeometry x="820" y="700.5" width="128" height="40" as="geometry" />
        </mxCell>
        <mxCell id="jBkCQPa_rAHTE68eQ11Z-23" value="Categoría" style="rounded=0;whiteSpace=wrap;html=1;" vertex="1" parent="1">
          <mxGeometry x="270" y="697.5" width="128" height="40" as="geometry" />
        </mxCell>
        <mxCell id="jBkCQPa_rAHTE68eQ11Z-24" value="Proveedor" style="rounded=0;whiteSpace=wrap;html=1;" vertex="1" parent="1">
          <mxGeometry x="820" y="320" width="128" height="40" as="geometry" />
        </mxCell>
        <mxCell id="jBkCQPa_rAHTE68eQ11Z-25" value="Compra" style="rounded=0;whiteSpace=wrap;html=1;" vertex="1" parent="1">
          <mxGeometry x="1300" y="700" width="128" height="40" as="geometry" />
        </mxCell>
        <mxCell id="jBkCQPa_rAHTE68eQ11Z-26" value="Detalle_compra" style="rounded=0;whiteSpace=wrap;html=1;" vertex="1" parent="1">
          <mxGeometry x="1300" y="1060" width="128" height="40" as="geometry" />
        </mxCell>
        <mxCell id="jBkCQPa_rAHTE68eQ11Z-27" value="Detalle_venta" style="rounded=0;whiteSpace=wrap;html=1;" vertex="1" parent="1">
          <mxGeometry x="2126" y="1130" width="128" height="40" as="geometry" />
        </mxCell>
        <mxCell id="jBkCQPa_rAHTE68eQ11Z-28" value="Id_venta (PK)" style="ellipse;whiteSpace=wrap;html=1;" vertex="1" parent="1">
          <mxGeometry x="2058" y="625" width="80" height="40" as="geometry" />
        </mxCell>
        <mxCell id="jBkCQPa_rAHTE68eQ11Z-29" style="edgeStyle=orthogonalEdgeStyle;rounded=0;orthogonalLoop=1;jettySize=auto;html=1;exitX=0.5;exitY=1;exitDx=0;exitDy=0;entryX=0.078;entryY=-0.025;entryDx=0;entryDy=0;entryPerimeter=0;" edge="1" parent="1" source="jBkCQPa_rAHTE68eQ11Z-28" target="jBkCQPa_rAHTE68eQ11Z-15">
          <mxGeometry relative="1" as="geometry" />
        </mxCell>
        <mxCell id="jBkCQPa_rAHTE68eQ11Z-30" style="edgeStyle=orthogonalEdgeStyle;rounded=0;orthogonalLoop=1;jettySize=auto;html=1;exitX=0;exitY=1;exitDx=0;exitDy=0;entryX=0.195;entryY=0.05;entryDx=0;entryDy=0;entryPerimeter=0;" edge="1" parent="1" source="jBkCQPa_rAHTE68eQ11Z-31" target="jBkCQPa_rAHTE68eQ11Z-15">
          <mxGeometry relative="1" as="geometry" />
        </mxCell>
        <mxCell id="jBkCQPa_rAHTE68eQ11Z-31" value="Fecha" style="ellipse;whiteSpace=wrap;html=1;" vertex="1" parent="1">
          <mxGeometry x="2138" y="595" width="72" height="35" as="geometry" />
        </mxCell>
        <mxCell id="jBkCQPa_rAHTE68eQ11Z-32" style="edgeStyle=orthogonalEdgeStyle;rounded=0;orthogonalLoop=1;jettySize=auto;html=1;exitX=0;exitY=0;exitDx=0;exitDy=0;entryX=0;entryY=0.75;entryDx=0;entryDy=0;" edge="1" parent="1" source="jBkCQPa_rAHTE68eQ11Z-33" target="jBkCQPa_rAHTE68eQ11Z-15">
          <mxGeometry relative="1" as="geometry" />
        </mxCell>
        <mxCell id="jBkCQPa_rAHTE68eQ11Z-33" value="Id_usuario (FK)" style="ellipse;whiteSpace=wrap;html=1;" vertex="1" parent="1">
          <mxGeometry x="2088" y="780" width="80" height="40" as="geometry" />
        </mxCell>
        <mxCell id="jBkCQPa_rAHTE68eQ11Z-34" value="Total" style="ellipse;whiteSpace=wrap;html=1;" vertex="1" parent="1">
          <mxGeometry x="2240" y="660" width="60" height="30" as="geometry" />
        </mxCell>
        <mxCell id="jBkCQPa_rAHTE68eQ11Z-35" value="Hora" style="ellipse;whiteSpace=wrap;html=1;" vertex="1" parent="1">
          <mxGeometry x="2220" y="625" width="60" height="30" as="geometry" />
        </mxCell>
        <mxCell id="jBkCQPa_rAHTE68eQ11Z-36" style="edgeStyle=orthogonalEdgeStyle;rounded=0;orthogonalLoop=1;jettySize=auto;html=1;exitX=0;exitY=0.5;exitDx=0;exitDy=0;entryX=0.43;entryY=0.025;entryDx=0;entryDy=0;entryPerimeter=0;" edge="1" parent="1" source="jBkCQPa_rAHTE68eQ11Z-35" target="jBkCQPa_rAHTE68eQ11Z-15">
          <mxGeometry relative="1" as="geometry" />
        </mxCell>
        <mxCell id="jBkCQPa_rAHTE68eQ11Z-37" style="edgeStyle=orthogonalEdgeStyle;rounded=0;orthogonalLoop=1;jettySize=auto;html=1;exitX=0;exitY=0.5;exitDx=0;exitDy=0;entryX=0.672;entryY=-0.05;entryDx=0;entryDy=0;entryPerimeter=0;" edge="1" parent="1" source="jBkCQPa_rAHTE68eQ11Z-34" target="jBkCQPa_rAHTE68eQ11Z-15">
          <mxGeometry relative="1" as="geometry" />
        </mxCell>
        <mxCell id="jBkCQPa_rAHTE68eQ11Z-38" style="edgeStyle=orthogonalEdgeStyle;rounded=0;orthogonalLoop=1;jettySize=auto;html=1;exitX=0;exitY=0;exitDx=0;exitDy=0;entryX=0.75;entryY=1;entryDx=0;entryDy=0;" edge="1" parent="1" source="jBkCQPa_rAHTE68eQ11Z-39" target="jBkCQPa_rAHTE68eQ11Z-15">
          <mxGeometry relative="1" as="geometry" />
        </mxCell>
        <mxCell id="jBkCQPa_rAHTE68eQ11Z-39" value="Metodo_pago" style="ellipse;whiteSpace=wrap;html=1;" vertex="1" parent="1">
          <mxGeometry x="2240" y="770" width="90" height="30" as="geometry" />
        </mxCell>
        <mxCell id="jBkCQPa_rAHTE68eQ11Z-40" value="Incluye" style="strokeWidth=2;html=1;shape=mxgraph.flowchart.decision;whiteSpace=wrap;" vertex="1" parent="1">
          <mxGeometry x="2160" y="940" width="60" height="50" as="geometry" />
        </mxCell>
        <mxCell id="jBkCQPa_rAHTE68eQ11Z-41" value="" style="endArrow=none;html=1;rounded=0;" edge="1" parent="1" target="jBkCQPa_rAHTE68eQ11Z-40">
          <mxGeometry relative="1" as="geometry">
            <mxPoint x="2190" y="740" as="sourcePoint" />
            <mxPoint x="2452" y="850.5" as="targetPoint" />
          </mxGeometry>
        </mxCell>
        <mxCell id="jBkCQPa_rAHTE68eQ11Z-42" value="" style="endArrow=none;html=1;rounded=0;exitX=0.5;exitY=1;exitDx=0;exitDy=0;exitPerimeter=0;entryX=0.5;entryY=0;entryDx=0;entryDy=0;" edge="1" parent="1" source="jBkCQPa_rAHTE68eQ11Z-40" target="jBkCQPa_rAHTE68eQ11Z-27">
          <mxGeometry relative="1" as="geometry">
            <mxPoint x="2440" y="780" as="sourcePoint" />
            <mxPoint x="2542" y="780.5" as="targetPoint" />
          </mxGeometry>
        </mxCell>
        <mxCell id="jBkCQPa_rAHTE68eQ11Z-43" value="Suministra" style="strokeWidth=2;html=1;shape=mxgraph.flowchart.decision;whiteSpace=wrap;" vertex="1" parent="1">
          <mxGeometry x="839" y="450" width="90" height="60" as="geometry" />
        </mxCell>
        <mxCell id="jBkCQPa_rAHTE68eQ11Z-44" value="" style="endArrow=none;html=1;rounded=0;exitX=0.5;exitY=1;exitDx=0;exitDy=0;entryX=0.5;entryY=0;entryDx=0;entryDy=0;entryPerimeter=0;" edge="1" parent="1" source="jBkCQPa_rAHTE68eQ11Z-24" target="jBkCQPa_rAHTE68eQ11Z-43">
          <mxGeometry relative="1" as="geometry">
            <mxPoint x="850" y="860" as="sourcePoint" />
            <mxPoint x="884" y="450" as="targetPoint" />
          </mxGeometry>
        </mxCell>
        <mxCell id="jBkCQPa_rAHTE68eQ11Z-45" value="" style="endArrow=none;html=1;rounded=0;exitX=0.5;exitY=1;exitDx=0;exitDy=0;exitPerimeter=0;entryX=0.5;entryY=0;entryDx=0;entryDy=0;" edge="1" parent="1" source="jBkCQPa_rAHTE68eQ11Z-43" target="jBkCQPa_rAHTE68eQ11Z-22">
          <mxGeometry relative="1" as="geometry">
            <mxPoint x="890" y="633" as="sourcePoint" />
            <mxPoint x="992" y="633.5" as="targetPoint" />
          </mxGeometry>
        </mxCell>
        <mxCell id="jBkCQPa_rAHTE68eQ11Z-46" value="Historial_precios" style="rounded=0;whiteSpace=wrap;html=1;" vertex="1" parent="1">
          <mxGeometry x="820" y="1164" width="128" height="40" as="geometry" />
        </mxCell>
        <mxCell id="jBkCQPa_rAHTE68eQ11Z-47" value="Tiene" style="strokeWidth=2;html=1;shape=mxgraph.flowchart.decision;whiteSpace=wrap;" vertex="1" parent="1">
          <mxGeometry x="854" y="1010" width="60" height="50" as="geometry" />
        </mxCell>
        <mxCell id="jBkCQPa_rAHTE68eQ11Z-48" value="" style="endArrow=none;html=1;rounded=0;exitX=0.5;exitY=1;exitDx=0;exitDy=0;" edge="1" parent="1" source="jBkCQPa_rAHTE68eQ11Z-22" target="jBkCQPa_rAHTE68eQ11Z-47">
          <mxGeometry relative="1" as="geometry">
            <mxPoint x="960" y="973" as="sourcePoint" />
            <mxPoint x="1062" y="973.5" as="targetPoint" />
          </mxGeometry>
        </mxCell>
        <mxCell id="jBkCQPa_rAHTE68eQ11Z-49" value="" style="endArrow=none;html=1;rounded=0;entryX=0;entryY=0.5;entryDx=0;entryDy=0;entryPerimeter=0;exitX=1;exitY=0.5;exitDx=0;exitDy=0;" edge="1" parent="1" source="jBkCQPa_rAHTE68eQ11Z-22" target="jBkCQPa_rAHTE68eQ11Z-89">
          <mxGeometry relative="1" as="geometry">
            <mxPoint x="930" y="1200" as="sourcePoint" />
            <mxPoint x="1032" y="1200.5" as="targetPoint" />
          </mxGeometry>
        </mxCell>
        <mxCell id="jBkCQPa_rAHTE68eQ11Z-50" value="" style="endArrow=none;html=1;rounded=0;entryX=0;entryY=0.5;entryDx=0;entryDy=0;entryPerimeter=0;exitX=1;exitY=0.5;exitDx=0;exitDy=0;" edge="1" parent="1" source="jBkCQPa_rAHTE68eQ11Z-25" target="jBkCQPa_rAHTE68eQ11Z-85">
          <mxGeometry relative="1" as="geometry">
            <mxPoint x="1320" y="1009.9999999999999" as="sourcePoint" />
            <mxPoint x="1422" y="1010.4999999999999" as="targetPoint" />
          </mxGeometry>
        </mxCell>
        <mxCell id="jBkCQPa_rAHTE68eQ11Z-51" value="" style="endArrow=none;html=1;rounded=0;exitX=0.5;exitY=1;exitDx=0;exitDy=0;exitPerimeter=0;entryX=0.5;entryY=0;entryDx=0;entryDy=0;" edge="1" parent="1" source="jBkCQPa_rAHTE68eQ11Z-47" target="jBkCQPa_rAHTE68eQ11Z-46">
          <mxGeometry relative="1" as="geometry">
            <mxPoint x="950" y="1230" as="sourcePoint" />
            <mxPoint x="1052" y="1230.5" as="targetPoint" />
          </mxGeometry>
        </mxCell>
        <mxCell id="jBkCQPa_rAHTE68eQ11Z-52" value="" style="endArrow=none;html=1;rounded=0;entryX=0;entryY=0.5;entryDx=0;entryDy=0;entryPerimeter=0;exitX=1;exitY=0.5;exitDx=0;exitDy=0;" edge="1" parent="1" source="jBkCQPa_rAHTE68eQ11Z-23" target="jBkCQPa_rAHTE68eQ11Z-12">
          <mxGeometry relative="1" as="geometry">
            <mxPoint x="510" y="795.5" as="sourcePoint" />
            <mxPoint x="590" y="795.5" as="targetPoint" />
          </mxGeometry>
        </mxCell>
        <mxCell id="jBkCQPa_rAHTE68eQ11Z-53" value="" style="endArrow=none;html=1;rounded=0;entryX=0;entryY=0.5;entryDx=0;entryDy=0;exitX=1;exitY=0.5;exitDx=0;exitDy=0;exitPerimeter=0;" edge="1" parent="1" source="jBkCQPa_rAHTE68eQ11Z-12" target="jBkCQPa_rAHTE68eQ11Z-22">
          <mxGeometry relative="1" as="geometry">
            <mxPoint x="750" y="731" as="sourcePoint" />
            <mxPoint x="860" y="803" as="targetPoint" />
          </mxGeometry>
        </mxCell>
        <mxCell id="jBkCQPa_rAHTE68eQ11Z-54" value="Id_categoria (PK)" style="ellipse;whiteSpace=wrap;html=1;" vertex="1" parent="1">
          <mxGeometry x="290" y="623" width="90" height="47" as="geometry" />
        </mxCell>
        <mxCell id="jBkCQPa_rAHTE68eQ11Z-55" value="Nombre" style="ellipse;whiteSpace=wrap;html=1;" vertex="1" parent="1">
          <mxGeometry x="260" y="783" width="80" height="30" as="geometry" />
        </mxCell>
        <mxCell id="jBkCQPa_rAHTE68eQ11Z-56" value="Descripción" style="ellipse;whiteSpace=wrap;html=1;" vertex="1" parent="1">
          <mxGeometry x="350" y="778" width="80" height="40" as="geometry" />
        </mxCell>
        <mxCell id="jBkCQPa_rAHTE68eQ11Z-57" style="edgeStyle=orthogonalEdgeStyle;rounded=0;orthogonalLoop=1;jettySize=auto;html=1;exitX=0.5;exitY=1;exitDx=0;exitDy=0;entryX=0.4;entryY=0.046;entryDx=0;entryDy=0;entryPerimeter=0;" edge="1" parent="1" source="jBkCQPa_rAHTE68eQ11Z-54" target="jBkCQPa_rAHTE68eQ11Z-23">
          <mxGeometry relative="1" as="geometry" />
        </mxCell>
        <mxCell id="jBkCQPa_rAHTE68eQ11Z-58" style="edgeStyle=orthogonalEdgeStyle;rounded=0;orthogonalLoop=1;jettySize=auto;html=1;exitX=0.5;exitY=0;exitDx=0;exitDy=0;entryX=0.833;entryY=0.931;entryDx=0;entryDy=0;entryPerimeter=0;" edge="1" parent="1" source="jBkCQPa_rAHTE68eQ11Z-56" target="jBkCQPa_rAHTE68eQ11Z-23">
          <mxGeometry relative="1" as="geometry" />
        </mxCell>
        <mxCell id="jBkCQPa_rAHTE68eQ11Z-59" style="edgeStyle=orthogonalEdgeStyle;rounded=0;orthogonalLoop=1;jettySize=auto;html=1;exitX=0.5;exitY=0;exitDx=0;exitDy=0;entryX=0.172;entryY=0.969;entryDx=0;entryDy=0;entryPerimeter=0;" edge="1" parent="1" source="jBkCQPa_rAHTE68eQ11Z-55" target="jBkCQPa_rAHTE68eQ11Z-23">
          <mxGeometry relative="1" as="geometry" />
        </mxCell>
        <mxCell id="jBkCQPa_rAHTE68eQ11Z-60" style="edgeStyle=orthogonalEdgeStyle;rounded=0;orthogonalLoop=1;jettySize=auto;html=1;exitX=0.5;exitY=1;exitDx=0;exitDy=0;entryX=0;entryY=0.75;entryDx=0;entryDy=0;" edge="1" parent="1" source="jBkCQPa_rAHTE68eQ11Z-61" target="jBkCQPa_rAHTE68eQ11Z-24">
          <mxGeometry relative="1" as="geometry" />
        </mxCell>
        <mxCell id="jBkCQPa_rAHTE68eQ11Z-61" value="Id_proveedor (PK)" style="ellipse;whiteSpace=wrap;html=1;" vertex="1" parent="1">
          <mxGeometry x="720" y="250" width="110" height="40" as="geometry" />
        </mxCell>
        <mxCell id="jBkCQPa_rAHTE68eQ11Z-62" value="Producto_suminitrados" style="ellipse;whiteSpace=wrap;html=1;" vertex="1" parent="1">
          <mxGeometry x="990" y="280" width="140" height="50" as="geometry" />
        </mxCell>
        <mxCell id="jBkCQPa_rAHTE68eQ11Z-63" value="Contacto" style="ellipse;whiteSpace=wrap;html=1;" vertex="1" parent="1">
          <mxGeometry x="960" y="220" width="80" height="40" as="geometry" />
        </mxCell>
        <mxCell id="jBkCQPa_rAHTE68eQ11Z-64" value="Nombre" style="ellipse;whiteSpace=wrap;html=1;" vertex="1" parent="1">
          <mxGeometry x="834" y="200" width="80" height="40" as="geometry" />
        </mxCell>
        <mxCell id="jBkCQPa_rAHTE68eQ11Z-65" style="edgeStyle=orthogonalEdgeStyle;rounded=0;orthogonalLoop=1;jettySize=auto;html=1;exitX=0.5;exitY=1;exitDx=0;exitDy=0;entryX=0.426;entryY=0.042;entryDx=0;entryDy=0;entryPerimeter=0;" edge="1" parent="1" source="jBkCQPa_rAHTE68eQ11Z-64" target="jBkCQPa_rAHTE68eQ11Z-24">
          <mxGeometry relative="1" as="geometry" />
        </mxCell>
        <mxCell id="jBkCQPa_rAHTE68eQ11Z-66" style="edgeStyle=orthogonalEdgeStyle;rounded=0;orthogonalLoop=1;jettySize=auto;html=1;exitX=0;exitY=0.5;exitDx=0;exitDy=0;entryX=1;entryY=0.25;entryDx=0;entryDy=0;" edge="1" parent="1" source="jBkCQPa_rAHTE68eQ11Z-62" target="jBkCQPa_rAHTE68eQ11Z-24">
          <mxGeometry relative="1" as="geometry" />
        </mxCell>
        <mxCell id="jBkCQPa_rAHTE68eQ11Z-67" style="edgeStyle=orthogonalEdgeStyle;rounded=0;orthogonalLoop=1;jettySize=auto;html=1;exitX=0;exitY=0.5;exitDx=0;exitDy=0;entryX=1;entryY=0;entryDx=0;entryDy=0;" edge="1" parent="1" source="jBkCQPa_rAHTE68eQ11Z-63" target="jBkCQPa_rAHTE68eQ11Z-24">
          <mxGeometry relative="1" as="geometry" />
        </mxCell>
        <mxCell id="jBkCQPa_rAHTE68eQ11Z-68" style="edgeStyle=orthogonalEdgeStyle;rounded=0;orthogonalLoop=1;jettySize=auto;html=1;exitX=1;exitY=1;exitDx=0;exitDy=0;entryX=0;entryY=0.25;entryDx=0;entryDy=0;" edge="1" parent="1" source="jBkCQPa_rAHTE68eQ11Z-69" target="jBkCQPa_rAHTE68eQ11Z-22">
          <mxGeometry relative="1" as="geometry" />
        </mxCell>
        <mxCell id="jBkCQPa_rAHTE68eQ11Z-69" value="Id_producto (PK)" style="ellipse;whiteSpace=wrap;html=1;" vertex="1" parent="1">
          <mxGeometry x="630" y="650" width="110" height="40" as="geometry" />
        </mxCell>
        <mxCell id="jBkCQPa_rAHTE68eQ11Z-70" value="Nombre" style="ellipse;whiteSpace=wrap;html=1;" vertex="1" parent="1">
          <mxGeometry x="670" y="605" width="70" height="30" as="geometry" />
        </mxCell>
        <mxCell id="jBkCQPa_rAHTE68eQ11Z-71" style="edgeStyle=orthogonalEdgeStyle;rounded=0;orthogonalLoop=1;jettySize=auto;html=1;exitX=1;exitY=1;exitDx=0;exitDy=0;" edge="1" parent="1" source="jBkCQPa_rAHTE68eQ11Z-72">
          <mxGeometry relative="1" as="geometry">
            <mxPoint x="860" y="700" as="targetPoint" />
          </mxGeometry>
        </mxCell>
        <mxCell id="jBkCQPa_rAHTE68eQ11Z-72" value="Descripción" style="ellipse;whiteSpace=wrap;html=1;" vertex="1" parent="1">
          <mxGeometry x="749" y="560" width="90" height="30" as="geometry" />
        </mxCell>
        <mxCell id="jBkCQPa_rAHTE68eQ11Z-73" style="edgeStyle=orthogonalEdgeStyle;rounded=0;orthogonalLoop=1;jettySize=auto;html=1;exitX=0;exitY=1;exitDx=0;exitDy=0;entryX=0.75;entryY=0;entryDx=0;entryDy=0;" edge="1" parent="1" source="jBkCQPa_rAHTE68eQ11Z-74" target="jBkCQPa_rAHTE68eQ11Z-22">
          <mxGeometry relative="1" as="geometry" />
        </mxCell>
        <mxCell id="jBkCQPa_rAHTE68eQ11Z-74" value="Precio_compra" style="ellipse;whiteSpace=wrap;html=1;" vertex="1" parent="1">
          <mxGeometry x="900" y="560" width="90" height="30" as="geometry" />
        </mxCell>
        <mxCell id="jBkCQPa_rAHTE68eQ11Z-75" value="Precio_venta" style="ellipse;whiteSpace=wrap;html=1;" vertex="1" parent="1">
          <mxGeometry x="970" y="595.5" width="90" height="30" as="geometry" />
        </mxCell>
        <mxCell id="jBkCQPa_rAHTE68eQ11Z-76" style="edgeStyle=orthogonalEdgeStyle;rounded=0;orthogonalLoop=1;jettySize=auto;html=1;exitX=1;exitY=1;exitDx=0;exitDy=0;entryX=0.072;entryY=0.009;entryDx=0;entryDy=0;entryPerimeter=0;" edge="1" parent="1" source="jBkCQPa_rAHTE68eQ11Z-70" target="jBkCQPa_rAHTE68eQ11Z-22">
          <mxGeometry relative="1" as="geometry" />
        </mxCell>
        <mxCell id="jBkCQPa_rAHTE68eQ11Z-77" style="edgeStyle=orthogonalEdgeStyle;rounded=0;orthogonalLoop=1;jettySize=auto;html=1;exitX=0;exitY=1;exitDx=0;exitDy=0;entryX=0.918;entryY=0.097;entryDx=0;entryDy=0;entryPerimeter=0;" edge="1" parent="1" source="jBkCQPa_rAHTE68eQ11Z-75" target="jBkCQPa_rAHTE68eQ11Z-22">
          <mxGeometry relative="1" as="geometry" />
        </mxCell>
        <mxCell id="jBkCQPa_rAHTE68eQ11Z-78" value="Stock_minimo" style="ellipse;whiteSpace=wrap;html=1;" vertex="1" parent="1">
          <mxGeometry x="790" y="860" width="90" height="30" as="geometry" />
        </mxCell>
        <mxCell id="jBkCQPa_rAHTE68eQ11Z-79" style="edgeStyle=orthogonalEdgeStyle;rounded=0;orthogonalLoop=1;jettySize=auto;html=1;exitX=1;exitY=0.5;exitDx=0;exitDy=0;entryX=0.25;entryY=1;entryDx=0;entryDy=0;" edge="1" parent="1" source="jBkCQPa_rAHTE68eQ11Z-80" target="jBkCQPa_rAHTE68eQ11Z-22">
          <mxGeometry relative="1" as="geometry" />
        </mxCell>
        <mxCell id="jBkCQPa_rAHTE68eQ11Z-80" value="Stock_actual" style="ellipse;whiteSpace=wrap;html=1;" vertex="1" parent="1">
          <mxGeometry x="720" y="825.5" width="90" height="30" as="geometry" />
        </mxCell>
        <mxCell id="jBkCQPa_rAHTE68eQ11Z-81" style="edgeStyle=orthogonalEdgeStyle;rounded=0;orthogonalLoop=1;jettySize=auto;html=1;exitX=0;exitY=0;exitDx=0;exitDy=0;entryX=0.75;entryY=1;entryDx=0;entryDy=0;" edge="1" parent="1" source="jBkCQPa_rAHTE68eQ11Z-82" target="jBkCQPa_rAHTE68eQ11Z-22">
          <mxGeometry relative="1" as="geometry">
            <Array as="points">
              <mxPoint x="941" y="800" />
              <mxPoint x="916" y="800" />
            </Array>
          </mxGeometry>
        </mxCell>
        <mxCell id="jBkCQPa_rAHTE68eQ11Z-82" value="Id_categoria (FK)" style="ellipse;whiteSpace=wrap;html=1;" vertex="1" parent="1">
          <mxGeometry x="975" y="800" width="80" height="40" as="geometry" />
        </mxCell>
        <mxCell id="jBkCQPa_rAHTE68eQ11Z-83" value="Id_proveedor (FK)" style="ellipse;whiteSpace=wrap;html=1;" vertex="1" parent="1">
          <mxGeometry x="980" y="737.5" width="110" height="40" as="geometry" />
        </mxCell>
        <mxCell id="jBkCQPa_rAHTE68eQ11Z-84" style="edgeStyle=orthogonalEdgeStyle;rounded=0;orthogonalLoop=1;jettySize=auto;html=1;exitX=0;exitY=0.5;exitDx=0;exitDy=0;entryX=0.899;entryY=0.979;entryDx=0;entryDy=0;entryPerimeter=0;" edge="1" parent="1" source="jBkCQPa_rAHTE68eQ11Z-83" target="jBkCQPa_rAHTE68eQ11Z-22">
          <mxGeometry relative="1" as="geometry" />
        </mxCell>
        <mxCell id="jBkCQPa_rAHTE68eQ11Z-85" value="Realiza" style="strokeWidth=2;html=1;shape=mxgraph.flowchart.decision;whiteSpace=wrap;" vertex="1" parent="1">
          <mxGeometry x="1530" y="695.5" width="60" height="50" as="geometry" />
        </mxCell>
        <mxCell id="jBkCQPa_rAHTE68eQ11Z-86" value="" style="endArrow=none;html=1;rounded=0;exitX=1;exitY=0.5;exitDx=0;exitDy=0;exitPerimeter=0;" edge="1" parent="1" source="jBkCQPa_rAHTE68eQ11Z-85" target="jBkCQPa_rAHTE68eQ11Z-1">
          <mxGeometry relative="1" as="geometry">
            <mxPoint x="1466" y="773" as="sourcePoint" />
            <mxPoint x="1450" y="833" as="targetPoint" />
          </mxGeometry>
        </mxCell>
        <mxCell id="jBkCQPa_rAHTE68eQ11Z-87" style="edgeStyle=orthogonalEdgeStyle;rounded=0;orthogonalLoop=1;jettySize=auto;html=1;exitX=0.5;exitY=1;exitDx=0;exitDy=0;entryX=0.426;entryY=0.04;entryDx=0;entryDy=0;entryPerimeter=0;" edge="1" parent="1" source="jBkCQPa_rAHTE68eQ11Z-3" target="jBkCQPa_rAHTE68eQ11Z-1">
          <mxGeometry relative="1" as="geometry">
            <Array as="points">
              <mxPoint x="1764" y="640" />
              <mxPoint x="1809" y="640" />
            </Array>
          </mxGeometry>
        </mxCell>
        <mxCell id="jBkCQPa_rAHTE68eQ11Z-88" style="edgeStyle=orthogonalEdgeStyle;rounded=0;orthogonalLoop=1;jettySize=auto;html=1;exitX=1;exitY=1;exitDx=0;exitDy=0;entryX=0.178;entryY=-0.019;entryDx=0;entryDy=0;entryPerimeter=0;" edge="1" parent="1" source="jBkCQPa_rAHTE68eQ11Z-2" target="jBkCQPa_rAHTE68eQ11Z-1">
          <mxGeometry relative="1" as="geometry" />
        </mxCell>
        <mxCell id="jBkCQPa_rAHTE68eQ11Z-89" value="Contiene" style="strokeWidth=2;html=1;shape=mxgraph.flowchart.decision;whiteSpace=wrap;" vertex="1" parent="1">
          <mxGeometry x="1090" y="693" width="90" height="55" as="geometry" />
        </mxCell>
        <mxCell id="jBkCQPa_rAHTE68eQ11Z-90" value="" style="endArrow=none;html=1;rounded=0;entryX=0;entryY=0.5;entryDx=0;entryDy=0;exitX=1;exitY=0.5;exitDx=0;exitDy=0;exitPerimeter=0;" edge="1" parent="1" source="jBkCQPa_rAHTE68eQ11Z-89" target="jBkCQPa_rAHTE68eQ11Z-25">
          <mxGeometry relative="1" as="geometry">
            <mxPoint x="1280" y="860" as="sourcePoint" />
            <mxPoint x="1442" y="860" as="targetPoint" />
          </mxGeometry>
        </mxCell>
        <mxCell id="jBkCQPa_rAHTE68eQ11Z-91" value="Id_compra (PK)" style="ellipse;whiteSpace=wrap;html=1;" vertex="1" parent="1">
          <mxGeometry x="1202" y="620" width="110" height="40" as="geometry" />
        </mxCell>
        <mxCell id="jBkCQPa_rAHTE68eQ11Z-92" value="Fecha" style="ellipse;whiteSpace=wrap;html=1;" vertex="1" parent="1">
          <mxGeometry x="1312" y="605" width="78" height="35" as="geometry" />
        </mxCell>
        <mxCell id="jBkCQPa_rAHTE68eQ11Z-93" value="Total" style="ellipse;whiteSpace=wrap;html=1;" vertex="1" parent="1">
          <mxGeometry x="1440" y="655.5" width="80" height="30" as="geometry" />
        </mxCell>
        <mxCell id="jBkCQPa_rAHTE68eQ11Z-94" value="Hora" style="ellipse;whiteSpace=wrap;html=1;" vertex="1" parent="1">
          <mxGeometry x="1400" y="620" width="60" height="30" as="geometry" />
        </mxCell>
        <mxCell id="jBkCQPa_rAHTE68eQ11Z-95" style="edgeStyle=orthogonalEdgeStyle;rounded=0;orthogonalLoop=1;jettySize=auto;html=1;exitX=0.5;exitY=0;exitDx=0;exitDy=0;entryX=0;entryY=0.75;entryDx=0;entryDy=0;" edge="1" parent="1" source="jBkCQPa_rAHTE68eQ11Z-96" target="jBkCQPa_rAHTE68eQ11Z-25">
          <mxGeometry relative="1" as="geometry" />
        </mxCell>
        <mxCell id="jBkCQPa_rAHTE68eQ11Z-96" value="Id_usuario (FK)" style="ellipse;whiteSpace=wrap;html=1;" vertex="1" parent="1">
          <mxGeometry x="1177" y="800" width="80" height="40" as="geometry" />
        </mxCell>
        <mxCell id="jBkCQPa_rAHTE68eQ11Z-97" value="Id_proveedor (FK)" style="ellipse;whiteSpace=wrap;html=1;" vertex="1" parent="1">
          <mxGeometry x="1220" y="850" width="110" height="40" as="geometry" />
        </mxCell>
        <mxCell id="jBkCQPa_rAHTE68eQ11Z-98" value="Id_producto (FK)" style="ellipse;whiteSpace=wrap;html=1;" vertex="1" parent="1">
          <mxGeometry x="1448" y="750" width="110" height="40" as="geometry" />
        </mxCell>
        <mxCell id="jBkCQPa_rAHTE68eQ11Z-99" style="edgeStyle=orthogonalEdgeStyle;rounded=0;orthogonalLoop=1;jettySize=auto;html=1;exitX=0.5;exitY=0;exitDx=0;exitDy=0;entryX=0.156;entryY=1;entryDx=0;entryDy=0;entryPerimeter=0;" edge="1" parent="1" source="jBkCQPa_rAHTE68eQ11Z-97" target="jBkCQPa_rAHTE68eQ11Z-25">
          <mxGeometry relative="1" as="geometry" />
        </mxCell>
        <mxCell id="jBkCQPa_rAHTE68eQ11Z-100" style="edgeStyle=orthogonalEdgeStyle;rounded=0;orthogonalLoop=1;jettySize=auto;html=1;exitX=0;exitY=0;exitDx=0;exitDy=0;entryX=0.834;entryY=0.981;entryDx=0;entryDy=0;entryPerimeter=0;" edge="1" parent="1" source="jBkCQPa_rAHTE68eQ11Z-98" target="jBkCQPa_rAHTE68eQ11Z-25">
          <mxGeometry relative="1" as="geometry" />
        </mxCell>
        <mxCell id="jBkCQPa_rAHTE68eQ11Z-101" style="edgeStyle=orthogonalEdgeStyle;rounded=0;orthogonalLoop=1;jettySize=auto;html=1;exitX=1;exitY=1;exitDx=0;exitDy=0;entryX=0.082;entryY=0.106;entryDx=0;entryDy=0;entryPerimeter=0;" edge="1" parent="1" source="jBkCQPa_rAHTE68eQ11Z-91" target="jBkCQPa_rAHTE68eQ11Z-25">
          <mxGeometry relative="1" as="geometry" />
        </mxCell>
        <mxCell id="jBkCQPa_rAHTE68eQ11Z-102" style="edgeStyle=orthogonalEdgeStyle;rounded=0;orthogonalLoop=1;jettySize=auto;html=1;exitX=0.5;exitY=1;exitDx=0;exitDy=0;entryX=0.365;entryY=-0.019;entryDx=0;entryDy=0;entryPerimeter=0;" edge="1" parent="1" source="jBkCQPa_rAHTE68eQ11Z-92" target="jBkCQPa_rAHTE68eQ11Z-25">
          <mxGeometry relative="1" as="geometry" />
        </mxCell>
        <mxCell id="jBkCQPa_rAHTE68eQ11Z-103" style="edgeStyle=orthogonalEdgeStyle;rounded=0;orthogonalLoop=1;jettySize=auto;html=1;exitX=0;exitY=1;exitDx=0;exitDy=0;entryX=0.609;entryY=0.106;entryDx=0;entryDy=0;entryPerimeter=0;" edge="1" parent="1" source="jBkCQPa_rAHTE68eQ11Z-94" target="jBkCQPa_rAHTE68eQ11Z-25">
          <mxGeometry relative="1" as="geometry" />
        </mxCell>
        <mxCell id="jBkCQPa_rAHTE68eQ11Z-104" style="edgeStyle=orthogonalEdgeStyle;rounded=0;orthogonalLoop=1;jettySize=auto;html=1;exitX=0;exitY=0.5;exitDx=0;exitDy=0;entryX=0.922;entryY=-0.019;entryDx=0;entryDy=0;entryPerimeter=0;" edge="1" parent="1" source="jBkCQPa_rAHTE68eQ11Z-93" target="jBkCQPa_rAHTE68eQ11Z-25">
          <mxGeometry relative="1" as="geometry" />
        </mxCell>
        <mxCell id="jBkCQPa_rAHTE68eQ11Z-105" value="Contiene" style="strokeWidth=2;html=1;shape=mxgraph.flowchart.decision;whiteSpace=wrap;" vertex="1" parent="1">
          <mxGeometry x="1331" y="900" width="66" height="60" as="geometry" />
        </mxCell>
        <mxCell id="jBkCQPa_rAHTE68eQ11Z-106" value="" style="endArrow=none;html=1;rounded=0;exitX=0.5;exitY=1;exitDx=0;exitDy=0;exitPerimeter=0;entryX=0.5;entryY=0;entryDx=0;entryDy=0;" edge="1" parent="1" source="jBkCQPa_rAHTE68eQ11Z-105" target="jBkCQPa_rAHTE68eQ11Z-26">
          <mxGeometry relative="1" as="geometry">
            <mxPoint x="1670" y="1150" as="sourcePoint" />
            <mxPoint x="1654.0000000000005" y="1210" as="targetPoint" />
          </mxGeometry>
        </mxCell>
        <mxCell id="jBkCQPa_rAHTE68eQ11Z-107" value="" style="endArrow=none;html=1;rounded=0;exitX=0.5;exitY=1;exitDx=0;exitDy=0;" edge="1" parent="1" source="jBkCQPa_rAHTE68eQ11Z-25" target="jBkCQPa_rAHTE68eQ11Z-105">
          <mxGeometry relative="1" as="geometry">
            <mxPoint x="1580" y="960" as="sourcePoint" />
            <mxPoint x="1580" y="1050" as="targetPoint" />
          </mxGeometry>
        </mxCell>
        <mxCell id="jBkCQPa_rAHTE68eQ11Z-108" value="Id_detalle_compra (PK)" style="ellipse;whiteSpace=wrap;html=1;" vertex="1" parent="1">
          <mxGeometry x="1151" y="1110" width="110" height="40" as="geometry" />
        </mxCell>
        <mxCell id="jBkCQPa_rAHTE68eQ11Z-109" value="Id_compra (FK)" style="ellipse;whiteSpace=wrap;html=1;" vertex="1" parent="1">
          <mxGeometry x="1250" y="1150" width="110" height="40" as="geometry" />
        </mxCell>
        <mxCell id="jBkCQPa_rAHTE68eQ11Z-110" value="Id_producto (FK)" style="ellipse;whiteSpace=wrap;html=1;" vertex="1" parent="1">
          <mxGeometry x="1342" y="1190" width="110" height="40" as="geometry" />
        </mxCell>
        <mxCell id="jBkCQPa_rAHTE68eQ11Z-111" value="Cantidad" style="ellipse;whiteSpace=wrap;html=1;" vertex="1" parent="1">
          <mxGeometry x="1420" y="990" width="90" height="30" as="geometry" />
        </mxCell>
        <mxCell id="jBkCQPa_rAHTE68eQ11Z-112" style="edgeStyle=orthogonalEdgeStyle;rounded=0;orthogonalLoop=1;jettySize=auto;html=1;exitX=0;exitY=0.5;exitDx=0;exitDy=0;entryX=1;entryY=0.5;entryDx=0;entryDy=0;" edge="1" parent="1" source="jBkCQPa_rAHTE68eQ11Z-113" target="jBkCQPa_rAHTE68eQ11Z-26">
          <mxGeometry relative="1" as="geometry" />
        </mxCell>
        <mxCell id="jBkCQPa_rAHTE68eQ11Z-113" value="Precio_compra" style="ellipse;whiteSpace=wrap;html=1;" vertex="1" parent="1">
          <mxGeometry x="1480" y="1090" width="110" height="40" as="geometry" />
        </mxCell>
        <mxCell id="jBkCQPa_rAHTE68eQ11Z-114" value="Subtotal" style="ellipse;whiteSpace=wrap;html=1;" vertex="1" parent="1">
          <mxGeometry x="1455" y="1150" width="110" height="40" as="geometry" />
        </mxCell>
        <mxCell id="jBkCQPa_rAHTE68eQ11Z-115" style="edgeStyle=orthogonalEdgeStyle;rounded=0;orthogonalLoop=1;jettySize=auto;html=1;exitX=0;exitY=1;exitDx=0;exitDy=0;entryX=0.83;entryY=0.01;entryDx=0;entryDy=0;entryPerimeter=0;" edge="1" parent="1" source="jBkCQPa_rAHTE68eQ11Z-111" target="jBkCQPa_rAHTE68eQ11Z-26">
          <mxGeometry relative="1" as="geometry" />
        </mxCell>
        <mxCell id="jBkCQPa_rAHTE68eQ11Z-116" style="edgeStyle=orthogonalEdgeStyle;rounded=0;orthogonalLoop=1;jettySize=auto;html=1;exitX=0;exitY=0;exitDx=0;exitDy=0;entryX=0.858;entryY=0.951;entryDx=0;entryDy=0;entryPerimeter=0;" edge="1" parent="1" source="jBkCQPa_rAHTE68eQ11Z-114" target="jBkCQPa_rAHTE68eQ11Z-26">
          <mxGeometry relative="1" as="geometry">
            <Array as="points">
              <mxPoint x="1471" y="1140" />
              <mxPoint x="1410" y="1140" />
            </Array>
          </mxGeometry>
        </mxCell>
        <mxCell id="jBkCQPa_rAHTE68eQ11Z-117" value="Id_historialP (PK)" style="ellipse;whiteSpace=wrap;html=1;" vertex="1" parent="1">
          <mxGeometry x="710" y="1100" width="110" height="40" as="geometry" />
        </mxCell>
        <mxCell id="jBkCQPa_rAHTE68eQ11Z-118" style="edgeStyle=orthogonalEdgeStyle;rounded=0;orthogonalLoop=1;jettySize=auto;html=1;exitX=1;exitY=0.5;exitDx=0;exitDy=0;entryX=0.343;entryY=0.028;entryDx=0;entryDy=0;entryPerimeter=0;" edge="1" parent="1" source="jBkCQPa_rAHTE68eQ11Z-117" target="jBkCQPa_rAHTE68eQ11Z-46">
          <mxGeometry relative="1" as="geometry" />
        </mxCell>
        <mxCell id="jBkCQPa_rAHTE68eQ11Z-119" style="edgeStyle=orthogonalEdgeStyle;rounded=0;orthogonalLoop=1;jettySize=auto;html=1;exitX=0.5;exitY=0;exitDx=0;exitDy=0;entryX=0;entryY=1;entryDx=0;entryDy=0;" edge="1" parent="1" source="jBkCQPa_rAHTE68eQ11Z-120" target="jBkCQPa_rAHTE68eQ11Z-46">
          <mxGeometry relative="1" as="geometry" />
        </mxCell>
        <mxCell id="jBkCQPa_rAHTE68eQ11Z-120" value="Precio_antiguo" style="ellipse;whiteSpace=wrap;html=1;" vertex="1" parent="1">
          <mxGeometry x="733" y="1260" width="97" height="30" as="geometry" />
        </mxCell>
        <mxCell id="jBkCQPa_rAHTE68eQ11Z-121" style="edgeStyle=orthogonalEdgeStyle;rounded=0;orthogonalLoop=1;jettySize=auto;html=1;exitX=1;exitY=0.5;exitDx=0;exitDy=0;entryX=0;entryY=0.5;entryDx=0;entryDy=0;" edge="1" parent="1" source="jBkCQPa_rAHTE68eQ11Z-122" target="jBkCQPa_rAHTE68eQ11Z-46">
          <mxGeometry relative="1" as="geometry" />
        </mxCell>
        <mxCell id="jBkCQPa_rAHTE68eQ11Z-122" value="Id_producto (FK)" style="ellipse;whiteSpace=wrap;html=1;" vertex="1" parent="1">
          <mxGeometry x="670" y="1180" width="110" height="40" as="geometry" />
        </mxCell>
        <mxCell id="jBkCQPa_rAHTE68eQ11Z-123" style="edgeStyle=orthogonalEdgeStyle;rounded=0;orthogonalLoop=1;jettySize=auto;html=1;exitX=1;exitY=0;exitDx=0;exitDy=0;" edge="1" parent="1" source="jBkCQPa_rAHTE68eQ11Z-124">
          <mxGeometry relative="1" as="geometry">
            <mxPoint x="850" y="1200" as="targetPoint" />
          </mxGeometry>
        </mxCell>
        <mxCell id="jBkCQPa_rAHTE68eQ11Z-124" value="Precio_nuevo" style="ellipse;whiteSpace=wrap;html=1;" vertex="1" parent="1">
          <mxGeometry x="763" y="1310" width="107" height="30" as="geometry" />
        </mxCell>
        <mxCell id="jBkCQPa_rAHTE68eQ11Z-125" style="edgeStyle=orthogonalEdgeStyle;rounded=0;orthogonalLoop=1;jettySize=auto;html=1;exitX=0;exitY=0.5;exitDx=0;exitDy=0;entryX=1;entryY=0.25;entryDx=0;entryDy=0;" edge="1" parent="1" source="jBkCQPa_rAHTE68eQ11Z-126" target="jBkCQPa_rAHTE68eQ11Z-46">
          <mxGeometry relative="1" as="geometry" />
        </mxCell>
        <mxCell id="jBkCQPa_rAHTE68eQ11Z-126" value="Fecha_cambio" style="ellipse;whiteSpace=wrap;html=1;" vertex="1" parent="1">
          <mxGeometry x="1000" y="1150" width="110" height="40" as="geometry" />
        </mxCell>
        <mxCell id="jBkCQPa_rAHTE68eQ11Z-127" value="Motivo" style="ellipse;whiteSpace=wrap;html=1;" vertex="1" parent="1">
          <mxGeometry x="990" y="1210" width="110" height="40" as="geometry" />
        </mxCell>
        <mxCell id="jBkCQPa_rAHTE68eQ11Z-128" style="edgeStyle=orthogonalEdgeStyle;rounded=0;orthogonalLoop=1;jettySize=auto;html=1;exitX=0;exitY=0.5;exitDx=0;exitDy=0;entryX=0.75;entryY=0;entryDx=0;entryDy=0;" edge="1" parent="1" source="jBkCQPa_rAHTE68eQ11Z-129" target="jBkCQPa_rAHTE68eQ11Z-46">
          <mxGeometry relative="1" as="geometry" />
        </mxCell>
        <mxCell id="jBkCQPa_rAHTE68eQ11Z-129" value="Id_usuario (FK)" style="ellipse;whiteSpace=wrap;html=1;" vertex="1" parent="1">
          <mxGeometry x="960" y="1100" width="80" height="40" as="geometry" />
        </mxCell>
        <mxCell id="jBkCQPa_rAHTE68eQ11Z-130" style="edgeStyle=orthogonalEdgeStyle;rounded=0;orthogonalLoop=1;jettySize=auto;html=1;exitX=0;exitY=0.5;exitDx=0;exitDy=0;entryX=0.904;entryY=0.94;entryDx=0;entryDy=0;entryPerimeter=0;" edge="1" parent="1" source="jBkCQPa_rAHTE68eQ11Z-127" target="jBkCQPa_rAHTE68eQ11Z-46">
          <mxGeometry relative="1" as="geometry" />
        </mxCell>
        <mxCell id="jBkCQPa_rAHTE68eQ11Z-131" style="edgeStyle=orthogonalEdgeStyle;rounded=0;orthogonalLoop=1;jettySize=auto;html=1;exitX=0;exitY=0;exitDx=0;exitDy=0;entryX=0.25;entryY=1;entryDx=0;entryDy=0;" edge="1" parent="1" source="jBkCQPa_rAHTE68eQ11Z-11" target="jBkCQPa_rAHTE68eQ11Z-1">
          <mxGeometry relative="1" as="geometry">
            <Array as="points">
              <mxPoint x="1817" y="800" />
              <mxPoint x="1785" y="800" />
            </Array>
          </mxGeometry>
        </mxCell>
        <mxCell id="jBkCQPa_rAHTE68eQ11Z-132" value="Realiza" style="strokeWidth=2;html=1;shape=mxgraph.flowchart.decision;whiteSpace=wrap;" vertex="1" parent="1">
          <mxGeometry x="1505" y="1350" width="60" height="50" as="geometry" />
        </mxCell>
        <mxCell id="jBkCQPa_rAHTE68eQ11Z-133" value="" style="endArrow=none;html=1;rounded=0;exitX=0;exitY=0.5;exitDx=0;exitDy=0;exitPerimeter=0;entryX=0.5;entryY=1;entryDx=0;entryDy=0;" edge="1" parent="1" source="jBkCQPa_rAHTE68eQ11Z-132" target="jBkCQPa_rAHTE68eQ11Z-46">
          <mxGeometry relative="1" as="geometry">
            <mxPoint x="1740" y="1470" as="sourcePoint" />
            <mxPoint x="1724" y="1530" as="targetPoint" />
            <Array as="points">
              <mxPoint x="884" y="1380" />
            </Array>
          </mxGeometry>
        </mxCell>
        <mxCell id="jBkCQPa_rAHTE68eQ11Z-134" style="edgeStyle=orthogonalEdgeStyle;rounded=0;orthogonalLoop=1;jettySize=auto;html=1;exitX=0.5;exitY=1;exitDx=0;exitDy=0;entryX=0;entryY=0.25;entryDx=0;entryDy=0;" edge="1" parent="1" source="jBkCQPa_rAHTE68eQ11Z-135" target="jBkCQPa_rAHTE68eQ11Z-17">
          <mxGeometry relative="1" as="geometry" />
        </mxCell>
        <mxCell id="jBkCQPa_rAHTE68eQ11Z-135" value="Id_inventario (PK)" style="ellipse;whiteSpace=wrap;html=1;" vertex="1" parent="1">
          <mxGeometry x="1360" y="310" width="80" height="40" as="geometry" />
        </mxCell>
        <mxCell id="jBkCQPa_rAHTE68eQ11Z-136" value="" style="endArrow=none;html=1;rounded=0;exitX=0;exitY=0.5;exitDx=0;exitDy=0;exitPerimeter=0;entryX=1;entryY=0.5;entryDx=0;entryDy=0;" edge="1" parent="1" source="jBkCQPa_rAHTE68eQ11Z-18" target="jBkCQPa_rAHTE68eQ11Z-17">
          <mxGeometry relative="1" as="geometry">
            <mxPoint x="1400" y="290" as="sourcePoint" />
            <mxPoint x="1400" y="450" as="targetPoint" />
          </mxGeometry>
        </mxCell>
        <mxCell id="jBkCQPa_rAHTE68eQ11Z-137" value="" style="endArrow=none;html=1;rounded=0;exitX=1;exitY=0.25;exitDx=0;exitDy=0;" edge="1" parent="1" source="jBkCQPa_rAHTE68eQ11Z-22" target="jBkCQPa_rAHTE68eQ11Z-138">
          <mxGeometry relative="1" as="geometry">
            <mxPoint x="948" y="711" as="sourcePoint" />
            <mxPoint x="1240" y="430" as="targetPoint" />
            <Array as="points">
              <mxPoint x="1080" y="711" />
              <mxPoint x="1080" y="425" />
            </Array>
          </mxGeometry>
        </mxCell>
        <mxCell id="jBkCQPa_rAHTE68eQ11Z-138" value="Cambia" style="strokeWidth=2;html=1;shape=mxgraph.flowchart.decision;whiteSpace=wrap;" vertex="1" parent="1">
          <mxGeometry x="1150" y="400" width="60" height="50" as="geometry" />
        </mxCell>
        <mxCell id="jBkCQPa_rAHTE68eQ11Z-139" value="" style="endArrow=none;html=1;rounded=0;exitX=0;exitY=0.5;exitDx=0;exitDy=0;entryX=1;entryY=0.5;entryDx=0;entryDy=0;entryPerimeter=0;" edge="1" parent="1" source="jBkCQPa_rAHTE68eQ11Z-17" target="jBkCQPa_rAHTE68eQ11Z-138">
          <mxGeometry relative="1" as="geometry">
            <mxPoint x="1383" y="260" as="sourcePoint" />
            <mxPoint x="1170" y="260" as="targetPoint" />
          </mxGeometry>
        </mxCell>
        <mxCell id="jBkCQPa_rAHTE68eQ11Z-140" style="edgeStyle=orthogonalEdgeStyle;rounded=0;orthogonalLoop=1;jettySize=auto;html=1;exitX=0;exitY=1;exitDx=0;exitDy=0;" edge="1" parent="1" source="jBkCQPa_rAHTE68eQ11Z-141">
          <mxGeometry relative="1" as="geometry">
            <mxPoint x="1462.6153846153843" y="400" as="targetPoint" />
          </mxGeometry>
        </mxCell>
        <mxCell id="jBkCQPa_rAHTE68eQ11Z-141" value="Fecha" style="ellipse;whiteSpace=wrap;html=1;" vertex="1" parent="1">
          <mxGeometry x="1452" y="295" width="78" height="35" as="geometry" />
        </mxCell>
        <mxCell id="jBkCQPa_rAHTE68eQ11Z-142" style="edgeStyle=orthogonalEdgeStyle;rounded=0;orthogonalLoop=1;jettySize=auto;html=1;exitX=0;exitY=1;exitDx=0;exitDy=0;entryX=0.585;entryY=-0.079;entryDx=0;entryDy=0;entryPerimeter=0;" edge="1" parent="1" source="jBkCQPa_rAHTE68eQ11Z-143" target="jBkCQPa_rAHTE68eQ11Z-17">
          <mxGeometry relative="1" as="geometry" />
        </mxCell>
        <mxCell id="jBkCQPa_rAHTE68eQ11Z-143" value="Id_producto (FK)" style="ellipse;whiteSpace=wrap;html=1;" vertex="1" parent="1">
          <mxGeometry x="1530" y="300" width="110" height="40" as="geometry" />
        </mxCell>
        <mxCell id="jBkCQPa_rAHTE68eQ11Z-144" value="Cantidad_anterior" style="ellipse;whiteSpace=wrap;html=1;" vertex="1" parent="1">
          <mxGeometry x="1590" y="370" width="120" height="30" as="geometry" />
        </mxCell>
        <mxCell id="jBkCQPa_rAHTE68eQ11Z-145" style="edgeStyle=orthogonalEdgeStyle;rounded=0;orthogonalLoop=1;jettySize=auto;html=1;exitX=0;exitY=0.5;exitDx=0;exitDy=0;entryX=0.897;entryY=0.037;entryDx=0;entryDy=0;entryPerimeter=0;" edge="1" parent="1" source="jBkCQPa_rAHTE68eQ11Z-144" target="jBkCQPa_rAHTE68eQ11Z-17">
          <mxGeometry relative="1" as="geometry" />
        </mxCell>
        <mxCell id="jBkCQPa_rAHTE68eQ11Z-146" value="Cantidad_nueva" style="ellipse;whiteSpace=wrap;html=1;" vertex="1" parent="1">
          <mxGeometry x="1360" y="500" width="100" height="40" as="geometry" />
        </mxCell>
        <mxCell id="jBkCQPa_rAHTE68eQ11Z-147" style="edgeStyle=orthogonalEdgeStyle;rounded=0;orthogonalLoop=1;jettySize=auto;html=1;exitX=0.5;exitY=0;exitDx=0;exitDy=0;entryX=0.116;entryY=0.96;entryDx=0;entryDy=0;entryPerimeter=0;" edge="1" parent="1" source="jBkCQPa_rAHTE68eQ11Z-146" target="jBkCQPa_rAHTE68eQ11Z-17">
          <mxGeometry relative="1" as="geometry" />
        </mxCell>
        <mxCell id="jBkCQPa_rAHTE68eQ11Z-148" style="edgeStyle=orthogonalEdgeStyle;rounded=0;orthogonalLoop=1;jettySize=auto;html=1;exitX=0.5;exitY=0;exitDx=0;exitDy=0;" edge="1" parent="1" source="jBkCQPa_rAHTE68eQ11Z-149">
          <mxGeometry relative="1" as="geometry">
            <mxPoint x="1500" y="450" as="targetPoint" />
          </mxGeometry>
        </mxCell>
        <mxCell id="jBkCQPa_rAHTE68eQ11Z-149" value="Motivo" style="ellipse;whiteSpace=wrap;html=1;" vertex="1" parent="1">
          <mxGeometry x="1475" y="520" width="90" height="30" as="geometry" />
        </mxCell>
        <mxCell id="jBkCQPa_rAHTE68eQ11Z-150" value="Id_usuario (FK)" style="ellipse;whiteSpace=wrap;html=1;" vertex="1" parent="1">
          <mxGeometry x="1580" y="480" width="80" height="40" as="geometry" />
        </mxCell>
        <mxCell id="jBkCQPa_rAHTE68eQ11Z-151" style="edgeStyle=orthogonalEdgeStyle;rounded=0;orthogonalLoop=1;jettySize=auto;html=1;exitX=0;exitY=0;exitDx=0;exitDy=0;entryX=0.909;entryY=0.921;entryDx=0;entryDy=0;entryPerimeter=0;" edge="1" parent="1" source="jBkCQPa_rAHTE68eQ11Z-150" target="jBkCQPa_rAHTE68eQ11Z-17">
          <mxGeometry relative="1" as="geometry" />
        </mxCell>
        <mxCell id="jBkCQPa_rAHTE68eQ11Z-152" style="edgeStyle=orthogonalEdgeStyle;rounded=0;orthogonalLoop=1;jettySize=auto;html=1;exitX=1;exitY=0;exitDx=0;exitDy=0;entryX=0.327;entryY=0.924;entryDx=0;entryDy=0;entryPerimeter=0;" edge="1" parent="1" source="jBkCQPa_rAHTE68eQ11Z-78" target="jBkCQPa_rAHTE68eQ11Z-22">
          <mxGeometry relative="1" as="geometry" />
        </mxCell>
        <mxCell id="jBkCQPa_rAHTE68eQ11Z-153" value="" style="endArrow=none;html=1;rounded=0;entryX=0;entryY=0.75;entryDx=0;entryDy=0;exitX=0;exitY=0.5;exitDx=0;exitDy=0;exitPerimeter=0;" edge="1" parent="1" source="jBkCQPa_rAHTE68eQ11Z-154" target="jBkCQPa_rAHTE68eQ11Z-22">
          <mxGeometry relative="1" as="geometry">
            <mxPoint x="610" y="1470" as="sourcePoint" />
            <mxPoint x="810" y="900" as="targetPoint" />
            <Array as="points">
              <mxPoint x="610" y="1460" />
              <mxPoint x="610" y="731" />
            </Array>
          </mxGeometry>
        </mxCell>
        <mxCell id="jBkCQPa_rAHTE68eQ11Z-154" value="Incluye" style="strokeWidth=2;html=1;shape=mxgraph.flowchart.decision;whiteSpace=wrap;" vertex="1" parent="1">
          <mxGeometry x="1321" y="1440" width="60" height="50" as="geometry" />
        </mxCell>
        <mxCell id="jBkCQPa_rAHTE68eQ11Z-155" value="" style="endArrow=none;html=1;rounded=0;exitX=0.5;exitY=1;exitDx=0;exitDy=0;entryX=1;entryY=0.5;entryDx=0;entryDy=0;entryPerimeter=0;" edge="1" parent="1" source="jBkCQPa_rAHTE68eQ11Z-27" target="jBkCQPa_rAHTE68eQ11Z-154">
          <mxGeometry relative="1" as="geometry">
            <mxPoint x="1664" y="1500" as="sourcePoint" />
            <mxPoint x="1400" y="1610" as="targetPoint" />
            <Array as="points">
              <mxPoint x="2190" y="1465" />
            </Array>
          </mxGeometry>
        </mxCell>
        <mxCell id="jBkCQPa_rAHTE68eQ11Z-156" value="Id_producto (FK)" style="ellipse;whiteSpace=wrap;html=1;" vertex="1" parent="1">
          <mxGeometry x="2290" y="1165" width="110" height="40" as="geometry" />
        </mxCell>
        <mxCell id="jBkCQPa_rAHTE68eQ11Z-157" value="Id_venta (FK)" style="ellipse;whiteSpace=wrap;html=1;" vertex="1" parent="1">
          <mxGeometry x="2250" y="1075" width="80" height="40" as="geometry" />
        </mxCell>
        <mxCell id="jBkCQPa_rAHTE68eQ11Z-158" value="Subtotal" style="ellipse;whiteSpace=wrap;html=1;" vertex="1" parent="1">
          <mxGeometry x="2205" y="1230" width="90" height="30" as="geometry" />
        </mxCell>
        <mxCell id="jBkCQPa_rAHTE68eQ11Z-159" style="edgeStyle=orthogonalEdgeStyle;rounded=0;orthogonalLoop=1;jettySize=auto;html=1;exitX=1;exitY=0.5;exitDx=0;exitDy=0;entryX=0;entryY=0.75;entryDx=0;entryDy=0;" edge="1" parent="1" source="jBkCQPa_rAHTE68eQ11Z-160" target="jBkCQPa_rAHTE68eQ11Z-27">
          <mxGeometry relative="1" as="geometry" />
        </mxCell>
        <mxCell id="jBkCQPa_rAHTE68eQ11Z-160" value="Cantidad" style="ellipse;whiteSpace=wrap;html=1;" vertex="1" parent="1">
          <mxGeometry x="1978" y="1140" width="72" height="30" as="geometry" />
        </mxCell>
        <mxCell id="jBkCQPa_rAHTE68eQ11Z-161" value="Precio_unitario" style="ellipse;whiteSpace=wrap;html=1;" vertex="1" parent="1">
          <mxGeometry x="2050" y="1215" width="98" height="35" as="geometry" />
        </mxCell>
        <mxCell id="jBkCQPa_rAHTE68eQ11Z-162" value="id_detalle_venta&lt;div&gt;(PK)&lt;/div&gt;" style="ellipse;whiteSpace=wrap;html=1;" vertex="1" parent="1">
          <mxGeometry x="2010" y="1080" width="130" height="40" as="geometry" />
        </mxCell>
        <mxCell id="jBkCQPa_rAHTE68eQ11Z-163" style="edgeStyle=orthogonalEdgeStyle;rounded=0;orthogonalLoop=1;jettySize=auto;html=1;exitX=1;exitY=0.5;exitDx=0;exitDy=0;entryX=0.3;entryY=0.095;entryDx=0;entryDy=0;entryPerimeter=0;" edge="1" parent="1" source="jBkCQPa_rAHTE68eQ11Z-162" target="jBkCQPa_rAHTE68eQ11Z-27">
          <mxGeometry relative="1" as="geometry" />
        </mxCell>
        <mxCell id="jBkCQPa_rAHTE68eQ11Z-164" style="edgeStyle=orthogonalEdgeStyle;rounded=0;orthogonalLoop=1;jettySize=auto;html=1;exitX=0;exitY=0.5;exitDx=0;exitDy=0;entryX=1.006;entryY=0.635;entryDx=0;entryDy=0;entryPerimeter=0;" edge="1" parent="1" source="jBkCQPa_rAHTE68eQ11Z-156" target="jBkCQPa_rAHTE68eQ11Z-27">
          <mxGeometry relative="1" as="geometry" />
        </mxCell>
        <mxCell id="jBkCQPa_rAHTE68eQ11Z-165" style="edgeStyle=orthogonalEdgeStyle;rounded=0;orthogonalLoop=1;jettySize=auto;html=1;exitX=1;exitY=0;exitDx=0;exitDy=0;entryX=0.344;entryY=0.995;entryDx=0;entryDy=0;entryPerimeter=0;" edge="1" parent="1" source="jBkCQPa_rAHTE68eQ11Z-161" target="jBkCQPa_rAHTE68eQ11Z-27">
          <mxGeometry relative="1" as="geometry" />
        </mxCell>
        <mxCell id="jBkCQPa_rAHTE68eQ11Z-166" style="edgeStyle=orthogonalEdgeStyle;rounded=0;orthogonalLoop=1;jettySize=auto;html=1;exitX=0.5;exitY=0;exitDx=0;exitDy=0;entryX=0.794;entryY=1.035;entryDx=0;entryDy=0;entryPerimeter=0;" edge="1" parent="1" source="jBkCQPa_rAHTE68eQ11Z-158" target="jBkCQPa_rAHTE68eQ11Z-27">
          <mxGeometry relative="1" as="geometry" />
        </mxCell>
        <mxCell id="jBkCQPa_rAHTE68eQ11Z-167" style="edgeStyle=orthogonalEdgeStyle;rounded=0;orthogonalLoop=1;jettySize=auto;html=1;exitX=0;exitY=0.5;exitDx=0;exitDy=0;entryX=0.881;entryY=-0.025;entryDx=0;entryDy=0;entryPerimeter=0;" edge="1" parent="1" source="jBkCQPa_rAHTE68eQ11Z-157" target="jBkCQPa_rAHTE68eQ11Z-27">
          <mxGeometry relative="1" as="geometry" />
        </mxCell>
        <mxCell id="jBkCQPa_rAHTE68eQ11Z-168" value="(1,1)" style="text;html=1;align=center;verticalAlign=middle;whiteSpace=wrap;rounded=0;" vertex="1" parent="1">
          <mxGeometry x="660" y="690" width="60" height="30" as="geometry" />
        </mxCell>
        <mxCell id="jBkCQPa_rAHTE68eQ11Z-169" value="(1,N)" style="text;html=1;align=center;verticalAlign=middle;whiteSpace=wrap;rounded=0;" vertex="1" parent="1">
          <mxGeometry x="880" y="390" width="60" height="30" as="geometry" />
        </mxCell>
        <mxCell id="jBkCQPa_rAHTE68eQ11Z-170" value="(1,N)" style="text;html=1;align=center;verticalAlign=middle;whiteSpace=wrap;rounded=0;" vertex="1" parent="1">
          <mxGeometry x="880" y="530" width="60" height="30" as="geometry" />
        </mxCell>
        <mxCell id="jBkCQPa_rAHTE68eQ11Z-171" value="(1,N)" style="text;html=1;align=center;verticalAlign=middle;whiteSpace=wrap;rounded=0;" vertex="1" parent="1">
          <mxGeometry x="410" y="685.5" width="60" height="30" as="geometry" />
        </mxCell>
        <mxCell id="jBkCQPa_rAHTE68eQ11Z-172" value="(0,N)" style="text;html=1;align=center;verticalAlign=middle;whiteSpace=wrap;rounded=0;" vertex="1" parent="1">
          <mxGeometry x="880" y="980" width="60" height="30" as="geometry" />
        </mxCell>
        <mxCell id="jBkCQPa_rAHTE68eQ11Z-173" value="(1,1)" style="text;html=1;align=center;verticalAlign=middle;whiteSpace=wrap;rounded=0;" vertex="1" parent="1">
          <mxGeometry x="880" y="1065" width="60" height="30" as="geometry" />
        </mxCell>
        <mxCell id="jBkCQPa_rAHTE68eQ11Z-174" value="(0,N)" style="text;html=1;align=center;verticalAlign=middle;whiteSpace=wrap;rounded=0;" vertex="1" parent="1">
          <mxGeometry x="1580" y="1350" width="60" height="30" as="geometry" />
        </mxCell>
        <mxCell id="jBkCQPa_rAHTE68eQ11Z-175" value="(1,1)" style="text;html=1;align=center;verticalAlign=middle;whiteSpace=wrap;rounded=0;" vertex="1" parent="1">
          <mxGeometry x="1420" y="1350" width="60" height="30" as="geometry" />
        </mxCell>
        <mxCell id="jBkCQPa_rAHTE68eQ11Z-176" value="(0,N)" style="text;html=1;align=center;verticalAlign=middle;whiteSpace=wrap;rounded=0;" vertex="1" parent="1">
          <mxGeometry x="1080" y="390" width="60" height="30" as="geometry" />
        </mxCell>
        <mxCell id="jBkCQPa_rAHTE68eQ11Z-177" value="(1,1)" style="text;html=1;align=center;verticalAlign=middle;whiteSpace=wrap;rounded=0;" vertex="1" parent="1">
          <mxGeometry x="1240" y="390" width="60" height="30" as="geometry" />
        </mxCell>
        <mxCell id="jBkCQPa_rAHTE68eQ11Z-178" value="(0,N)" style="text;html=1;align=center;verticalAlign=middle;whiteSpace=wrap;rounded=0;" vertex="1" parent="1">
          <mxGeometry x="1822" y="465" width="60" height="30" as="geometry" />
        </mxCell>
        <mxCell id="jBkCQPa_rAHTE68eQ11Z-179" value="(1,1)" style="text;html=1;align=center;verticalAlign=middle;whiteSpace=wrap;rounded=0;" vertex="1" parent="1">
          <mxGeometry x="1728" y="390" width="60" height="30" as="geometry" />
        </mxCell>
        <mxCell id="jBkCQPa_rAHTE68eQ11Z-180" value="(1,N)" style="text;html=1;align=center;verticalAlign=middle;whiteSpace=wrap;rounded=0;" vertex="1" parent="1">
          <mxGeometry x="1360" y="783" width="60" height="30" as="geometry" />
        </mxCell>
        <mxCell id="jBkCQPa_rAHTE68eQ11Z-181" value="(1,1)" style="text;html=1;align=center;verticalAlign=middle;whiteSpace=wrap;rounded=0;" vertex="1" parent="1">
          <mxGeometry x="1360" y="970" width="60" height="30" as="geometry" />
        </mxCell>
        <mxCell id="jBkCQPa_rAHTE68eQ11Z-182" value="(1,N)" style="text;html=1;align=center;verticalAlign=middle;whiteSpace=wrap;rounded=0;" vertex="1" parent="1">
          <mxGeometry x="1227" y="1430" width="60" height="30" as="geometry" />
        </mxCell>
        <mxCell id="jBkCQPa_rAHTE68eQ11Z-183" value="(1,1)" style="text;html=1;align=center;verticalAlign=middle;whiteSpace=wrap;rounded=0;" vertex="1" parent="1">
          <mxGeometry x="1388" y="1430" width="60" height="30" as="geometry" />
        </mxCell>
        <mxCell id="jBkCQPa_rAHTE68eQ11Z-184" value="(0,N)" style="text;html=1;align=center;verticalAlign=middle;whiteSpace=wrap;rounded=0;" vertex="1" parent="1">
          <mxGeometry x="1590" y="690" width="60" height="30" as="geometry" />
        </mxCell>
        <mxCell id="jBkCQPa_rAHTE68eQ11Z-185" value="(1,1)" style="text;html=1;align=center;verticalAlign=middle;whiteSpace=wrap;rounded=0;" vertex="1" parent="1">
          <mxGeometry x="1473" y="690" width="60" height="30" as="geometry" />
        </mxCell>
        <mxCell id="jBkCQPa_rAHTE68eQ11Z-186" value="(1,N)" style="text;html=1;align=center;verticalAlign=middle;whiteSpace=wrap;rounded=0;" vertex="1" parent="1">
          <mxGeometry x="2190" y="880" width="60" height="30" as="geometry" />
        </mxCell>
        <mxCell id="jBkCQPa_rAHTE68eQ11Z-187" value="(1,1)" style="text;html=1;align=center;verticalAlign=middle;whiteSpace=wrap;rounded=0;" vertex="1" parent="1">
          <mxGeometry x="2190" y="1010" width="60" height="30" as="geometry" />
        </mxCell>
        <mxCell id="jBkCQPa_rAHTE68eQ11Z-188" value="(0,N)" style="text;html=1;align=center;verticalAlign=middle;whiteSpace=wrap;rounded=0;" vertex="1" parent="1">
          <mxGeometry x="1925" y="693" width="60" height="30" as="geometry" />
        </mxCell>
        <mxCell id="jBkCQPa_rAHTE68eQ11Z-189" value="Vencimiento" style="ellipse;whiteSpace=wrap;html=1;" vertex="1" parent="1">
          <mxGeometry x="710" y="790" width="90" height="30" as="geometry" />
        </mxCell>
        <mxCell id="jBkCQPa_rAHTE68eQ11Z-190" style="edgeStyle=orthogonalEdgeStyle;rounded=0;orthogonalLoop=1;jettySize=auto;html=1;exitX=1;exitY=0.5;exitDx=0;exitDy=0;entryX=0.091;entryY=0.987;entryDx=0;entryDy=0;entryPerimeter=0;" edge="1" parent="1" source="jBkCQPa_rAHTE68eQ11Z-189" target="jBkCQPa_rAHTE68eQ11Z-22">
          <mxGeometry relative="1" as="geometry" />
        </mxCell>
        <mxCell id="jBkCQPa_rAHTE68eQ11Z-191" style="edgeStyle=orthogonalEdgeStyle;rounded=0;orthogonalLoop=1;jettySize=auto;html=1;exitX=1;exitY=0;exitDx=0;exitDy=0;entryX=0.339;entryY=0.932;entryDx=0;entryDy=0;entryPerimeter=0;" edge="1" parent="1" source="jBkCQPa_rAHTE68eQ11Z-109" target="jBkCQPa_rAHTE68eQ11Z-26">
          <mxGeometry relative="1" as="geometry" />
        </mxCell>
        <mxCell id="jBkCQPa_rAHTE68eQ11Z-192" style="edgeStyle=orthogonalEdgeStyle;rounded=0;orthogonalLoop=1;jettySize=auto;html=1;exitX=1;exitY=0.5;exitDx=0;exitDy=0;entryX=0.183;entryY=0.955;entryDx=0;entryDy=0;entryPerimeter=0;" edge="1" parent="1" source="jBkCQPa_rAHTE68eQ11Z-108" target="jBkCQPa_rAHTE68eQ11Z-26">
          <mxGeometry relative="1" as="geometry" />
        </mxCell>
        <mxCell id="jBkCQPa_rAHTE68eQ11Z-193" value="(1,N)" style="text;html=1;align=center;verticalAlign=middle;whiteSpace=wrap;rounded=0;" vertex="1" parent="1">
          <mxGeometry x="1030" y="930" width="60" height="30" as="geometry" />
        </mxCell>
        <mxCell id="jBkCQPa_rAHTE68eQ11Z-194" value="(1,1)" style="text;html=1;align=center;verticalAlign=middle;whiteSpace=wrap;rounded=0;" vertex="1" parent="1">
          <mxGeometry x="1167" y="930" width="60" height="30" as="geometry" />
        </mxCell>
        <mxCell id="jBkCQPa_rAHTE68eQ11Z-195" value="" style="endArrow=none;html=1;rounded=0;exitX=1;exitY=0.5;exitDx=0;exitDy=0;exitPerimeter=0;entryX=0;entryY=0.5;entryDx=0;entryDy=0;" edge="1" parent="1" source="jBkCQPa_rAHTE68eQ11Z-197" target="jBkCQPa_rAHTE68eQ11Z-26">
          <mxGeometry relative="1" as="geometry">
            <mxPoint x="1230" y="1020" as="sourcePoint" />
            <mxPoint x="1230" y="1120" as="targetPoint" />
            <Array as="points">
              <mxPoint x="1220" y="960" />
              <mxPoint x="1220" y="1080" />
            </Array>
          </mxGeometry>
        </mxCell>
        <mxCell id="jBkCQPa_rAHTE68eQ11Z-196" value="" style="endArrow=none;html=1;rounded=0;exitX=0.588;exitY=1.01;exitDx=0;exitDy=0;exitPerimeter=0;" edge="1" parent="1" source="jBkCQPa_rAHTE68eQ11Z-22" target="jBkCQPa_rAHTE68eQ11Z-197">
          <mxGeometry relative="1" as="geometry">
            <mxPoint x="895" y="741" as="sourcePoint" />
            <mxPoint x="1160" y="960" as="targetPoint" />
            <Array as="points">
              <mxPoint x="895" y="960" />
            </Array>
          </mxGeometry>
        </mxCell>
        <mxCell id="jBkCQPa_rAHTE68eQ11Z-197" value="Incluye" style="strokeWidth=2;html=1;shape=mxgraph.flowchart.decision;whiteSpace=wrap;" vertex="1" parent="1">
          <mxGeometry x="1100" y="930" width="66" height="60" as="geometry" />
        </mxCell>
        <mxCell id="jBkCQPa_rAHTE68eQ11Z-198" value="(1,1)" style="text;html=1;align=center;verticalAlign=middle;whiteSpace=wrap;rounded=0;" vertex="1" parent="1">
          <mxGeometry x="2054" y="693" width="60" height="30" as="geometry" />
        </mxCell>
        <mxCell id="jBkCQPa_rAHTE68eQ11Z-199" style="edgeStyle=orthogonalEdgeStyle;rounded=0;orthogonalLoop=1;jettySize=auto;html=1;exitX=0.5;exitY=0;exitDx=0;exitDy=0;entryX=0.597;entryY=0.952;entryDx=0;entryDy=0;entryPerimeter=0;" edge="1" parent="1" source="jBkCQPa_rAHTE68eQ11Z-110" target="jBkCQPa_rAHTE68eQ11Z-26">
          <mxGeometry relative="1" as="geometry" />
        </mxCell>
      </root>
    </mxGraphModel>
  </diagram>
</mxfile>
